<!DOCTYPE svg PUBLIC "-//W3C//DTD SVG 20010904//EN" "http://www.w3.org/TR/2001/REC-SVG-20010904/DTD/svg10.dtd">
<svg version="1.0" xmlns="http://www.w3.org/2000/svg" width="431px" height="580px" viewBox="0 0 4310 5800" preserveAspectRatio="xMidYMid meet">
<g id="layer101" fill="#222122" stroke="none">
 <path d="M2456 4744 c-3 -9 -6 -29 -6 -45 0 -20 -4 -27 -14 -23 -8 3 -17 1 -20 -5 -4 -6 -13 -8 -20 -5 -24 9 -28 -13 -12 -66 9 -30 12 -60 7 -77 -11 -45 -8 -68 10 -65 25 4 45 -103 30 -162 -6 -25 -11 -79 -11 -120 0 -55 -4 -79 -16 -91 -13 -13 -14 -18 -3 -31 17 -20 21 -51 9 -59 -5 -3 -7 0 -4 8 3 8 1 18 -4 21 -5 3 -12 -3 -15 -14 -3 -11 -12 -20 -21 -20 -9 0 -17 -8 -17 -17 -1 -10 -3 -30 -5 -45 -1 -16 1 -28 7 -28 5 0 9 10 10 23 0 21 1 21 9 2 14 -33 11 -102 -5 -119 -19 -18 -19 -30 -1 -23 16 6 30 -60 19 -88 -5 -14 -2 -16 15 -10 24 7 26 2 24 -74 -2 -53 -12 -69 -12 -20 0 20 -8 44 -17 55 -10 11 -27 37 -38 58 -11 21 -32 50 -47 65 -33 31 -34 38 -8 71 26 33 25 62 -1 78 -15 10 -20 20 -16 39 3 19 0 27 -14 30 -20 5 -22 11 -23 53 -1 21 -5 25 -26 22 -14 -1 -33 -11 -42 -22 -21 -25 -30 -13 -38 49 -6 55 -24 63 -40 19 l-12 -33 -14 39 c-8 22 -21 47 -29 56 -8 9 -15 31 -15 49 0 29 -3 32 -22 26 -16 -6 -20 -4 -15 9 3 8 2 18 -3 21 -4 3 -10 -1 -13 -7 -3 -7 -12 5 -21 27 -9 22 -21 48 -26 57 -6 10 -10 31 -10 48 0 33 -2 35 -31 19 -13 -7 -19 -19 -17 -37 2 -21 -1 -26 -15 -24 -15 3 -17 -1 -11 -20 6 -20 7 -51 1 -159 -1 -9 -7 -15 -14 -12 -15 6 -11 -43 5 -59 7 -7 12 -17 12 -24 0 -6 13 -17 29 -24 16 -6 41 -25 57 -41 23 -24 26 -32 15 -38 -7 -5 -10 -14 -7 -20 9 -15 -7 -14 -22 1 -9 9 -12 8 -12 -5 0 -9 -4 -17 -10 -17 -12 0 -50 41 -50 54 0 6 7 3 14 -6 19 -25 22 -23 22 17 0 34 -1 35 -32 31 -36 -6 -48 9 -38 49 3 12 2 25 -3 28 -15 9 -44 -20 -47 -47 -2 -15 -8 -32 -14 -38 -18 -18 -14 -35 9 -41 12 -3 18 -10 15 -15 -3 -6 -1 -23 6 -39 6 -15 10 -34 9 -40 -1 -7 5 -13 14 -13 8 0 15 -4 15 -10 0 -5 7 -10 16 -10 13 0 15 -7 11 -30 -9 -42 1 -64 20 -48 13 10 14 6 12 -31 -2 -28 1 -45 11 -51 12 -7 12 -12 -3 -28 -9 -10 -17 -23 -17 -28 0 -5 -14 -9 -30 -10 -19 -1 -30 4 -30 12 0 17 -12 18 -27 3 -14 -14 -73 36 -73 64 0 12 -7 31 -15 41 -20 27 -19 42 2 25 15 -13 15 -12 2 8 -8 14 -16 18 -20 12 -5 -8 -9 -8 -13 0 -4 6 -4 16 -1 21 4 6 1 17 -5 26 -23 26 -42 -3 -34 -52 5 -36 3 -44 -14 -53 -29 -15 -34 -14 -77 15 -30 20 -40 23 -46 12 -20 -31 -14 -35 99 -79 21 -8 22 -10 8 -25 -27 -27 -20 -39 29 -46 10 -2 27 -11 37 -20 10 -10 25 -15 34 -11 20 7 114 -37 114 -54 0 -7 6 -10 14 -7 18 7 54 -40 61 -80 7 -33 73 -116 93 -116 7 0 12 -15 12 -35 0 -32 -2 -35 -20 -25 -10 6 -17 16 -15 23 7 17 -11 41 -24 33 -6 -4 -11 -27 -11 -51 0 -41 3 -45 36 -61 30 -14 37 -15 44 -3 7 11 10 10 15 -3 4 -10 5 -21 2 -25 -3 -5 2 -17 10 -28 13 -16 15 -17 10 -2 -4 11 -1 17 8 17 8 0 15 -4 15 -10 0 -5 9 -10 19 -10 10 0 21 -7 25 -15 3 -8 18 -20 33 -26 26 -10 27 -11 10 -24 -20 -15 -54 -6 -89 23 -10 8 -24 12 -33 8 -9 -3 -24 3 -36 15 -18 18 -23 19 -37 6 -20 -17 -42 -12 -42 11 0 12 -5 11 -25 -8 -25 -23 -25 -23 -47 -4 -12 10 -33 31 -46 47 -13 15 -30 27 -38 27 -8 0 -32 17 -55 39 -31 29 -40 43 -35 59 4 13 1 22 -9 26 -8 3 -15 1 -15 -4 0 -5 -13 -2 -28 7 -34 20 -62 12 -62 -18 0 -17 5 -20 20 -16 21 5 60 -26 60 -47 0 -6 9 -17 20 -24 11 -7 20 -18 20 -26 0 -8 10 -13 24 -13 13 0 34 -8 47 -17 l23 -16 -32 0 c-39 0 -41 -14 -4 -33 104 -56 129 -67 154 -67 15 0 28 -4 28 -10 0 -5 9 -10 21 -10 15 0 19 5 15 15 -7 19 26 20 57 3 12 -7 56 -18 97 -25 41 -7 84 -14 95 -16 28 -5 83 -35 87 -47 1 -5 32 -29 68 -52 36 -24 70 -53 76 -65 6 -13 13 -20 17 -17 9 9 50 -17 77 -49 14 -17 38 -43 53 -59 15 -15 25 -33 22 -38 -4 -6 -3 -10 2 -9 26 5 42 -4 45 -23 2 -15 9 -22 21 -22 9 1 17 -3 17 -8 0 -18 50 -58 73 -58 16 0 18 -3 9 -9 -10 -6 -6 -10 15 -15 32 -8 83 -53 83 -73 0 -7 6 -13 13 -13 7 0 26 -13 41 -29 21 -22 26 -35 21 -52 -6 -18 -4 -21 9 -16 22 9 36 -23 32 -72 -2 -26 1 -41 8 -41 13 0 38 -59 30 -71 -3 -5 1 -6 8 -4 17 7 58 -73 58 -111 0 -14 4 -33 9 -43 24 -45 54 -270 55 -418 1 -117 4 -154 14 -158 29 -11 33 9 28 143 -6 153 -8 176 -35 346 -10 65 -16 127 -13 138 3 12 -7 34 -27 59 -46 57 -91 146 -91 181 0 31 -22 81 -48 111 -14 16 -14 19 -2 27 12 8 11 10 -7 10 -12 0 -41 21 -70 51 -26 27 -78 73 -115 102 -38 28 -68 55 -68 59 0 4 -6 8 -13 8 -8 0 -24 11 -37 25 -13 14 -28 25 -33 25 -13 0 -43 38 -78 97 -16 28 -37 57 -44 63 -20 16 -19 34 0 26 13 -5 14 -2 5 15 -8 14 -15 17 -23 10 -9 -7 -27 5 -62 40 -27 27 -44 49 -38 49 9 0 9 8 2 29 -11 31 -50 46 -68 28 -19 -19 -33 6 -21 37 l10 28 38 -23 c20 -12 42 -27 47 -33 6 -6 31 -21 57 -33 56 -26 90 -69 67 -85 -11 -8 -11 -9 3 -4 24 7 60 -40 52 -67 -5 -16 -3 -19 11 -13 12 4 20 -2 28 -23 10 -27 44 -48 56 -35 15 15 -128 220 -176 251 -17 12 -23 22 -19 37 7 30 -4 66 -20 66 -8 0 -14 -6 -14 -12 0 -7 -5 -5 -11 5 -5 9 -7 23 -3 30 4 6 4 9 -1 5 -9 -8 -34 23 -54 67 -7 17 -17 37 -22 45 -5 8 -20 39 -35 68 -14 29 -52 78 -85 109 -32 32 -58 62 -56 67 1 4 -10 22 -25 38 -30 32 -38 78 -14 78 8 0 16 7 20 15 3 8 2 14 -2 14 -20 -3 -30 3 -39 24 -10 21 -9 23 17 21 39 -3 52 -12 45 -33 -9 -29 19 -44 65 -36 43 7 46 5 29 -26 -9 -18 -7 -20 18 -17 21 2 28 -2 31 -17 2 -11 10 -27 17 -35 7 -8 15 -32 18 -52 7 -49 -9 -50 -47 -2 -25 32 -27 38 -16 60 8 13 10 27 7 31 -4 3 -7 1 -7 -4 0 -16 -31 -9 -45 10 -20 28 -33 20 -37 -23 -2 -29 0 -39 8 -36 15 6 38 -20 30 -33 -8 -13 4 -42 15 -35 14 8 68 -53 56 -65 -6 -6 -5 -16 2 -28 10 -17 10 -17 11 0 0 25 16 13 36 -28 10 -22 23 -35 35 -35 13 0 19 -7 19 -24 0 -25 22 -51 33 -39 4 3 7 -3 7 -15 0 -13 6 -22 15 -22 8 0 15 -4 15 -8 0 -10 44 -66 88 -111 22 -23 31 -39 27 -52 -7 -21 5 -25 22 -8 8 8 14 5 24 -12 9 -18 9 -24 -1 -27 -7 -3 1 -10 18 -17 20 -9 34 -25 43 -48 7 -20 21 -38 32 -41 10 -2 16 -9 13 -15 -8 -13 34 -83 47 -78 15 5 17 35 6 65 -6 14 -14 60 -19 101 -5 42 -16 105 -25 141 -15 59 -15 65 0 76 13 9 13 17 4 40 -10 28 -11 28 -25 10 -12 -17 -14 -17 -14 -3 0 9 -18 46 -41 83 -37 61 -39 68 -25 83 18 20 20 31 6 31 -19 0 -55 45 -72 90 -20 50 -22 61 -10 59 27 -5 35 2 18 14 -17 12 -17 14 -2 20 20 8 20 30 -1 70 -20 39 -24 66 -26 177 -1 47 2 88 8 92 6 4 2 8 -8 8 -27 0 -50 -64 -45 -122 3 -26 2 -48 -1 -48 -3 0 -21 17 -39 37 -24 28 -32 45 -28 63 2 14 -1 36 -9 50 -10 18 -10 31 -2 50 6 14 11 76 11 139 1 72 5 116 12 118 11 4 6 57 -17 154 -10 47 -10 67 1 115 7 33 18 65 24 73 6 7 11 40 11 72 0 49 -2 59 -16 59 -9 0 -20 -7 -23 -16z m-25 -130 c-9 -28 -9 -29 -10 -3 -1 14 2 29 6 32 11 12 13 2 4 -29z m-521 -317 c0 -16 -18 3 -23 25 -6 22 -5 22 8 4 8 -11 15 -24 15 -29z m40 -111 c-1 -5 17 -17 39 -27 38 -17 41 -21 41 -57 0 -38 -1 -40 -37 -45 -21 -2 -43 -2 -50 2 -18 10 -74 84 -67 90 3 3 10 -2 15 -12 6 -9 15 -15 20 -11 6 4 6 10 -1 19 -7 9 -6 16 5 25 8 7 12 17 9 22 -4 5 1 8 10 6 10 -1 17 -7 16 -12z m74 -151 c3 -9 0 -15 -8 -15 -7 0 -19 7 -26 15 -10 12 -9 15 8 15 11 0 22 -7 26 -15z m40 -25 c3 -16 9 -45 12 -62 l6 -33 -26 29 c-26 29 -31 51 -20 80 10 25 22 19 28 -14z m138 -17 c8 -10 5 -13 -10 -13 -22 0 -32 -18 -32 -58 -1 -24 -2 -25 -11 -8 -15 24 -5 80 18 103 15 16 19 16 22 3 2 -8 8 -21 13 -27z m36 -85 c-6 -40 -23 -28 -24 17 -1 42 0 43 13 25 8 -11 13 -30 11 -42z m200 -25 c15 -26 15 -33 2 -33 -12 0 -40 91 -32 105 4 5 9 -4 12 -20 4 -17 12 -40 18 -52z m-408 18 c3 -12 10 -22 15 -22 15 1 12 -52 -2 -56 -7 -3 -13 2 -13 11 0 9 -6 15 -12 14 -7 -2 -12 5 -10 15 2 11 -4 17 -18 17 -25 0 -25 8 -2 31 21 22 35 19 42 -10z m-84 -39 c6 -4 11 -20 11 -37 0 -16 2 -37 4 -45 2 -8 -1 -14 -7 -13 -7 1 -11 -8 -10 -21 1 -16 6 -22 19 -18 11 3 17 -1 17 -12 0 -9 5 -16 11 -16 5 0 8 -4 4 -9 -8 -14 21 -29 61 -33 7 -1 12 -11 12 -22 0 -12 3 -41 5 -66 3 -26 0 -51 -7 -59 -9 -12 -8 -13 4 -6 13 8 13 7 1 -8 -8 -10 -23 -16 -34 -15 -11 2 -22 -2 -24 -8 -4 -11 8 -27 65 -91 12 -14 22 -32 22 -38 0 -12 27 -30 41 -27 4 1 5 -8 2 -18 -3 -11 -8 -20 -12 -20 -12 0 -61 58 -61 72 0 8 -11 20 -24 27 -13 7 -36 33 -51 57 -38 61 -55 73 -68 53 -9 -14 -15 -11 -39 25 -30 45 -36 65 -13 46 12 -10 15 -9 15 8 0 11 -5 22 -11 24 -6 2 -2 13 9 26 23 26 32 20 32 -24 0 -26 6 -35 30 -48 17 -8 31 -11 31 -8 1 4 3 16 4 27 2 11 4 25 5 30 5 21 0 34 -12 31 -7 -1 -10 -1 -5 1 10 6 9 33 -2 33 -4 0 -6 12 -3 28 5 24 4 26 -12 13 -22 -18 -26 -13 -29 37 -1 23 -4 42 -7 42 -3 0 -5 20 -5 45 -1 43 8 53 31 37z m-36 -45 c0 -18 -2 -19 -10 -7 -13 20 -13 43 0 35 6 -3 10 -16 10 -28z m315 -19 c12 -11 15 -18 7 -18 -15 0 -62 48 -62 64 0 5 8 1 18 -9 9 -11 26 -28 37 -37z m235 16 c0 -20 4 -24 19 -19 14 4 20 -1 25 -17 5 -19 8 -20 16 -8 8 12 10 11 10 -7 0 -30 -16 -37 -32 -14 -7 10 -22 20 -33 22 -14 3 -21 14 -23 37 -2 18 1 32 7 32 6 0 11 -12 11 -26z m-423 -71 c18 -24 45 -73 39 -73 -3 0 -18 20 -35 45 -29 44 -32 63 -4 28z m-357 -60 c0 -18 -7 -16 -30 7 -23 23 -24 26 -7 45 10 11 14 9 24 -13 7 -15 12 -33 13 -39z m884 31 c9 -23 7 -36 -3 -30 -12 8 -21 46 -11 46 4 0 11 -7 14 -16z m-47 -93 c14 -31 35 -69 46 -84 14 -21 18 -38 14 -64 -5 -29 -3 -34 10 -29 12 5 14 1 10 -16 -6 -25 16 -64 31 -54 5 3 15 -7 21 -22 9 -18 9 -28 2 -30 -20 -7 -11 -24 9 -19 13 3 20 0 20 -9 0 -8 -5 -14 -11 -14 -6 0 -9 -6 -6 -12 2 -7 11 -12 20 -10 11 2 18 -12 27 -55 7 -32 16 -67 22 -78 5 -12 13 -47 17 -78 8 -56 7 -57 -12 -40 -10 10 -26 31 -35 48 -8 16 -53 71 -99 120 -49 52 -97 115 -114 149 -32 64 -35 82 -16 89 7 3 5 6 -5 6 -13 1 -16 8 -14 34 2 17 6 39 9 47 12 34 15 60 6 60 -5 0 -9 32 -9 71 0 63 2 70 15 59 9 -7 28 -38 42 -69z m-101 -117 c-9 -35 -26 -18 -19 19 4 19 9 25 16 18 5 -5 6 -22 3 -37z m-246 -10 c0 -8 -4 -14 -10 -14 -5 0 -10 9 -10 21 0 11 5 17 10 14 6 -3 10 -13 10 -21z m50 -34 c21 -17 23 -21 10 -31 -12 -8 -11 -9 6 -5 16 5 24 0 32 -19 7 -14 12 -33 12 -41 0 -8 9 -22 20 -31 11 -10 20 -30 20 -46 0 -19 4 -26 11 -21 9 5 10 -1 5 -20 -4 -16 -2 -26 5 -26 13 0 32 -19 48 -49 18 -33 8 -36 -27 -6 -17 14 -46 32 -65 40 -46 19 -87 57 -87 80 0 10 -6 26 -14 34 -22 27 -38 84 -25 92 6 4 8 12 5 18 -4 6 -1 11 6 11 10 0 10 2 -1 9 -7 5 -10 14 -7 20 10 15 17 14 46 -9z m-30 -212 c0 -4 -7 -5 -15 -2 -8 4 -15 16 -15 28 1 21 1 21 15 2 8 -11 15 -23 15 -28z m-130 -13 c22 -26 5 -27 -23 -1 -15 14 -27 28 -27 31 0 9 35 -12 50 -30z m148 -42 c-14 -17 -18 -16 -48 7 l-25 20 33 -6 c23 -5 32 -3 32 7 0 11 2 11 10 -1 5 -9 5 -19 -2 -27z m37 -17 c12 -12 12 -15 -5 -19 -21 -5 -30 0 -30 20 0 17 18 17 35 -1z m76 -153 c76 -65 104 -92 98 -97 -6 -6 -95 52 -133 87 -23 22 -25 37 -5 37 4 0 22 -12 40 -27z"/>
 <path d="M2721 4381 c-13 -8 -13 -12 -1 -26 8 -9 15 -40 17 -70 3 -48 1 -53 -16 -48 -28 7 -37 -17 -14 -36 15 -12 19 -21 13 -36 -13 -30 -12 -38 4 -32 8 3 16 -2 18 -11 8 -31 -4 -191 -14 -189 -6 1 -10 -35 -10 -93 1 -95 -12 -187 -29 -204 -5 -6 -9 -33 -9 -60 -1 -40 -3 -47 -11 -33 -5 9 -14 17 -19 17 -16 0 -11 -40 4 -46 8 -3 12 -12 9 -19 -3 -9 5 -17 24 -21 15 -4 33 -11 40 -16 22 -17 72 -27 80 -15 4 7 9 4 14 -9 12 -30 10 -79 -3 -92 -8 -8 -8 -18 -2 -34 6 -13 9 -35 8 -50 -2 -16 1 -28 7 -28 5 0 9 6 9 13 1 6 7 -3 15 -21 8 -18 24 -47 36 -63 12 -17 27 -53 35 -81 7 -28 17 -54 22 -57 5 -3 15 -23 23 -43 7 -21 17 -39 21 -39 4 -1 12 -2 16 -3 20 -3 72 -57 72 -75 0 -28 32 -44 55 -27 14 10 15 17 6 34 -15 29 -15 29 19 47 17 9 30 21 30 27 0 6 7 20 16 30 16 16 16 18 0 24 -9 3 -16 13 -16 21 0 9 6 13 14 10 16 -7 30 34 21 63 -3 9 -1 30 5 45 9 23 15 26 38 21 15 -3 22 -3 15 0 -7 3 -9 12 -6 20 3 7 9 11 14 8 5 -3 9 2 9 10 0 9 -6 16 -14 16 -19 0 -28 29 -28 86 0 56 18 101 42 107 17 4 17 7 0 56 -9 29 -27 59 -39 67 -35 25 -54 72 -47 117 5 27 2 47 -9 63 -24 36 -25 134 -2 134 16 0 57 54 56 72 0 7 -4 4 -9 -7 -7 -17 -9 -17 -9 -2 -1 24 -25 21 -45 -5 -17 -23 -17 -23 -13 9 2 18 0 34 -3 35 -17 7 -58 105 -54 128 3 14 0 32 -5 40 -9 13 -12 12 -25 -5 -20 -26 -21 -95 -2 -95 8 0 17 -10 21 -22 3 -13 10 -32 15 -43 11 -28 31 -127 26 -132 -2 -2 -13 11 -25 29 -12 18 -44 51 -71 73 -26 22 -54 54 -61 70 -13 29 -27 45 -41 45 -14 0 -8 -50 8 -75 13 -20 14 -28 4 -40 -18 -22 -6 -119 18 -150 11 -13 22 -22 25 -19 9 9 67 -29 67 -44 0 -8 6 -12 14 -9 9 4 17 -2 21 -13 3 -10 12 -21 20 -24 9 -3 15 -19 15 -40 0 -27 4 -34 15 -30 9 4 16 -3 21 -21 4 -15 22 -43 40 -63 36 -39 37 -55 8 -120 -10 -20 -14 -60 -13 -105 1 -54 -4 -83 -20 -117 -11 -25 -21 -53 -21 -62 0 -10 -4 -18 -10 -18 -5 0 -10 -11 -10 -24 0 -14 -4 -36 -10 -50 -8 -22 -16 -26 -53 -26 -37 0 -48 5 -79 38 -33 34 -55 76 -50 95 1 4 -2 7 -7 7 -4 0 -23 23 -40 52 -29 45 -32 58 -26 96 4 29 3 42 -4 38 -12 -8 -20 34 -25 127 -3 60 -1 71 19 93 26 28 37 61 24 70 -14 8 -11 24 5 24 15 0 26 21 26 51 0 10 6 19 13 19 8 0 7 4 -3 10 -20 13 -28 12 -33 -2 -2 -7 -2 0 1 17 2 16 11 35 20 41 10 7 11 13 4 17 -5 4 -8 16 -5 27 4 16 2 19 -11 14 -15 -6 -16 -1 -11 42 3 26 10 51 16 55 11 6 13 27 10 79 -1 14 0 36 1 49 6 48 -20 30 -51 -35 -17 -36 -31 -72 -31 -80 0 -20 19 -27 38 -14 9 7 6 2 -8 -11 -20 -20 -25 -34 -25 -76 0 -28 3 -49 6 -47 16 9 15 -26 -1 -91 -10 -38 -18 -62 -19 -52 0 11 -9 31 -19 45 -39 57 -44 88 -46 279 -1 104 1 196 6 205 5 11 3 22 -6 31 -15 14 -20 92 -8 112 12 19 9 49 -7 67 -17 20 -29 22 -50 9z m297 -489 c26 -28 25 -42 -3 -42 -21 0 -25 5 -25 30 0 35 4 37 28 12z m81 -70 c9 -16 4 -72 -6 -72 -10 0 -93 62 -93 69 0 5 11 12 25 15 14 4 25 11 25 17 0 14 37 -7 49 -29z m-316 -214 c-3 -53 -11 -88 -20 -98 -13 -13 -14 -12 -8 8 3 12 2 22 -3 22 -9 0 1 57 23 128 13 39 15 24 8 -60z m52 -47 c-3 -12 -11 -21 -16 -21 -6 0 -7 6 -2 13 4 6 6 21 4 32 -2 15 0 17 9 9 7 -7 9 -21 5 -33z"/>
 <path d="M1626 4351 c-9 -13 6 -51 20 -51 7 0 14 -14 16 -32 2 -27 7 -32 25 -30 17 2 20 -1 16 -16 -3 -14 2 -21 16 -25 16 -4 21 -13 21 -41 0 -34 2 -36 31 -36 32 0 34 5 14 52 -4 11 -1 17 10 20 15 3 14 6 -5 30 -11 15 -27 27 -33 25 -7 -1 -13 10 -15 25 -2 14 -10 32 -18 38 -8 7 -14 20 -14 30 0 14 -9 18 -40 18 -22 0 -42 -3 -44 -7z"/>
 <path d="M2615 4310 c-3 -5 -10 -35 -15 -67 -5 -31 -14 -59 -20 -63 -6 -4 -8 -14 -4 -23 3 -9 0 -33 -7 -54 -10 -32 -13 -35 -20 -18 -8 22 -7 25 -14 -35 -2 -25 13 -37 45 -32 29 4 30 6 30 55 0 38 5 56 21 73 25 26 43 95 28 105 -6 3 -9 15 -8 25 6 33 -21 58 -36 34z"/>
 <path d="M1597 3993 c-9 -15 -11 -58 -4 -70 15 -24 37 -14 37 16 0 48 -19 78 -33 54z"/>
 <path d="M3663 3808 c-6 -7 -18 -35 -28 -61 -10 -27 -24 -51 -31 -54 -7 -2 -14 -14 -17 -25 -4 -13 -11 -19 -20 -15 -20 8 -52 -54 -34 -65 20 -13 35 -9 60 15 28 26 67 86 67 105 0 6 9 21 20 32 23 23 28 80 6 80 -7 0 -18 -6 -23 -12z"/>
 <path d="M1542 3679 c2 -7 10 -15 17 -17 8 -3 12 1 9 9 -2 7 -10 15 -17 17 -8 3 -12 -1 -9 -9z"/>
 <path d="M3489 3585 c-8 -10 -38 -42 -66 -70 -29 -29 -53 -55 -53 -58 0 -2 -8 -22 -17 -43 -17 -38 -25 -157 -10 -147 4 2 12 -8 18 -24 8 -22 7 -30 -5 -39 -21 -15 -21 -45 -1 -38 17 7 20 -16 6 -44 -48 -91 -61 -151 -67 -317 -2 -81 -10 -177 -18 -214 -7 -37 -9 -77 -5 -87 4 -10 8 -32 8 -49 1 -32 15 -73 49 -144 18 -40 19 -47 6 -65 -17 -24 -18 -36 -3 -36 5 0 7 5 4 10 -3 6 -2 10 4 10 15 0 34 -77 35 -143 1 -37 6 -61 15 -66 7 -5 14 -29 16 -53 1 -25 7 -54 13 -64 5 -10 15 -44 23 -74 7 -30 16 -59 21 -64 4 -6 8 -31 8 -57 0 -32 6 -55 22 -74 12 -15 24 -43 27 -63 6 -35 33 -63 48 -49 4 5 -5 45 -19 90 -30 92 -42 138 -39 150 1 4 -5 18 -14 30 -8 12 -15 37 -15 55 0 19 -7 48 -15 65 -18 40 -35 118 -29 129 3 5 1 15 -5 22 -6 7 -17 52 -24 100 -8 48 -20 93 -26 99 -6 6 -11 24 -11 40 0 16 -7 35 -15 43 -25 26 -47 120 -42 182 3 31 10 140 16 242 7 102 16 189 22 194 5 6 9 21 9 33 0 27 26 83 38 83 18 0 12 139 -8 192 -24 63 -25 87 -5 94 8 3 17 21 21 40 3 19 13 38 21 43 8 4 13 12 11 17 -1 5 7 10 20 12 12 2 22 10 22 17 0 8 6 18 14 22 25 15 36 49 22 68 -12 17 -13 17 -27 0z"/>
 <path d="M1845 3343 c9 -37 36 -55 50 -33 8 13 -24 60 -42 60 -12 0 -13 -7 -8 -27z"/>
 <path d="M803 3134 c30 -102 124 -292 190 -387 92 -132 201 -199 246 -151 9 11 15 27 13 38 -4 18 -3 18 21 0 14 -11 24 -21 22 -24 -2 -3 8 -6 21 -6 13 -1 24 2 24 8 0 5 4 7 9 3 5 -3 16 3 23 12 7 10 26 19 42 20 17 1 34 9 38 18 5 8 16 15 24 15 11 0 13 6 9 20 -10 31 24 26 108 -17 39 -20 85 -37 100 -38 32 -2 47 -18 47 -52 0 -20 5 -23 35 -23 23 0 35 5 35 14 0 8 12 17 27 21 16 4 34 11 40 17 15 12 18 42 3 33 -5 -3 -10 3 -10 15 0 11 7 23 16 27 23 8 69 -30 67 -56 -2 -13 3 -21 12 -21 8 0 16 -6 16 -12 3 -30 5 -35 21 -51 12 -12 18 -13 21 -4 3 9 9 8 23 -4 10 -9 28 -19 39 -23 16 -6 17 -9 5 -17 -11 -7 -6 -9 20 -7 28 2 35 7 35 25 0 11 3 25 8 29 15 16 6 34 -18 34 -16 0 -25 -6 -25 -15 0 -12 -4 -13 -19 -5 -36 19 -64 70 -63 111 2 31 -2 39 -16 39 -10 0 -23 -5 -30 -12 -9 -9 -12 -9 -12 0 0 12 -70 52 -90 52 -6 0 -22 -11 -35 -24 -23 -23 -26 -23 -34 -8 -5 10 -22 24 -38 32 -15 8 -33 21 -39 29 -9 12 -14 8 -29 -17 -10 -17 -21 -29 -25 -27 -3 2 -6 -5 -7 -15 -1 -10 5 -21 13 -24 8 -3 14 -15 14 -26 0 -19 -2 -19 -27 7 -39 40 -146 93 -185 93 -27 0 -37 -6 -51 -30 -10 -16 -21 -30 -25 -30 -4 0 -29 18 -56 40 -26 22 -52 40 -56 40 -5 0 -16 -14 -24 -32 -20 -38 -20 -48 -3 -23 16 20 23 13 37 -35 14 -50 -10 -48 -56 5 -24 26 -48 62 -54 79 -16 42 -48 122 -69 169 -14 33 -18 36 -34 25 -16 -12 -14 -20 28 -118 46 -109 71 -200 61 -226 -9 -24 -59 10 -126 87 -51 60 -102 151 -214 389 -14 30 -52 42 -43 14z m991 -459 c15 -19 23 -35 18 -35 -16 0 -62 41 -62 56 0 23 16 16 44 -21z"/>
 <path d="M2167 2643 c-4 -21 -1 -55 5 -77 10 -31 10 -40 0 -44 -24 -8 0 -22 39 -22 44 0 48 10 24 56 -8 16 -15 42 -15 57 0 67 -43 91 -53 30z"/>
 <path d="M2256 2392 c-30 -6 -57 -37 -50 -55 3 -9 10 -15 14 -12 5 3 11 1 15 -5 3 -5 14 -10 24 -10 14 0 20 10 24 38 5 42 0 50 -27 44z"/>
 <path d="M814 2371 c-17 -10 -36 -34 -43 -51 -8 -25 -15 -31 -28 -25 -75 32 -179 65 -190 61 -21 -8 -15 -33 10 -39 26 -6 183 -63 198 -73 6 -3 9 -15 6 -25 -3 -10 -2 -19 2 -21 3 -2 21 -22 40 -46 43 -55 85 -78 117 -63 14 6 24 19 24 31 0 23 -55 87 -105 121 -41 28 -44 52 -10 75 19 12 38 15 73 11 45 -6 146 -49 158 -68 8 -14 34 -11 34 5 0 35 -141 116 -214 123 -29 3 -50 -2 -72 -16z"/>
 <path d="M1139 2273 c-13 -15 -21 -115 -8 -107 3 2 16 -15 28 -36 28 -51 56 -70 103 -70 41 0 50 14 46 74 -1 23 4 42 14 52 15 16 20 15 61 -9 25 -15 59 -45 77 -67 17 -22 38 -40 46 -40 7 0 21 -11 30 -25 9 -13 31 -34 50 -46 19 -11 32 -25 28 -30 -3 -5 6 -9 21 -9 29 0 45 27 24 41 -17 11 32 12 80 3 25 -5 33 -13 41 -43 5 -20 6 -37 1 -39 -5 -2 -6 -13 -3 -24 5 -20 6 -20 12 -4 4 14 14 0 39 -53 18 -39 39 -71 47 -71 20 0 18 17 -16 95 -39 92 -39 103 1 97 43 -6 35 16 -17 45 -29 16 -41 31 -46 55 -10 45 8 108 30 108 21 0 54 -20 34 -20 -28 0 -1 -17 29 -18 18 0 36 -7 40 -14 6 -9 9 -6 9 10 0 42 -98 110 -140 97 -38 -12 -63 -97 -46 -157 8 -26 6 -28 -22 -28 -17 0 -33 -4 -36 -9 -9 -14 -86 5 -110 28 -27 25 -46 82 -46 135 0 30 -3 37 -17 34 -14 -2 -19 -15 -21 -51 l-3 -48 -55 55 c-42 42 -64 56 -96 61 -35 6 -44 4 -59 -14 l-17 -21 -40 40 c-42 43 -71 50 -93 23z m61 -73 c18 -10 60 -73 60 -91 0 -6 -10 -9 -22 -7 -16 2 -30 18 -45 48 -31 63 -30 70 7 50z"/>
 <path d="M1979 2149 c-20 -20 -21 -29 -17 -110 3 -49 2 -92 -3 -95 -5 -3 -9 -12 -9 -21 0 -12 3 -13 13 -4 11 9 19 -11 43 -107 24 -91 34 -118 48 -120 16 -3 18 1 12 25 -32 144 -51 341 -34 358 3 4 20 -1 37 -9 34 -18 93 -21 121 -6 29 15 108 22 127 11 10 -5 25 -31 34 -58 11 -35 24 -52 45 -62 16 -8 37 -18 47 -23 17 -8 57 9 57 25 0 17 -51 87 -75 103 -44 29 -4 47 50 22 17 -8 25 -18 23 -31 -2 -11 3 -22 10 -24 6 -3 12 1 12 7 0 10 4 10 15 0 8 -7 15 -19 15 -26 0 -8 7 -15 15 -15 8 -1 21 -2 28 -3 24 -4 27 5 10 32 -44 71 -116 123 -174 124 -17 1 -39 -8 -53 -21 l-23 -22 -47 21 c-62 26 -84 25 -129 -6 -45 -30 -68 -26 -115 22 -38 40 -54 42 -83 13z"/>
 <path d="M2859 2128 c-33 -35 -59 -81 -59 -105 0 -34 -13 -28 -35 18 -22 47 -49 69 -84 69 -50 0 -64 -56 -35 -139 14 -37 25 -50 60 -68 24 -13 55 -23 68 -23 21 0 29 -12 60 -90 20 -50 36 -96 36 -104 0 -15 21 -26 52 -26 18 0 20 5 16 43 -3 23 -18 63 -34 87 -70 110 -91 191 -58 224 8 9 13 20 10 25 -3 4 6 21 19 37 41 48 27 96 -16 52z m-93 -182 l18 -29 -28 7 c-36 9 -65 43 -66 78 l0 27 29 -27 c15 -15 37 -40 47 -56z"/>
 </g>

</svg>