<!DOCTYPE svg PUBLIC "-//W3C//DTD SVG 20010904//EN" "http://www.w3.org/TR/2001/REC-SVG-20010904/DTD/svg10.dtd">
<svg version="1.0" xmlns="http://www.w3.org/2000/svg" width="577px" height="433px" viewBox="0 0 5770 4330" preserveAspectRatio="xMidYMid meet">
<g id="layer101" fill="#292828" stroke="none">
 <path d="M3426 3843 c-2 -10 -7 -33 -11 -50 -4 -18 -11 -33 -16 -33 -12 0 -12 -27 0 -32 5 -1 1 -28 -9 -58 -10 -30 -18 -50 -19 -45 -1 6 -7 -1 -14 -15 -9 -17 -11 -37 -5 -62 5 -23 4 -47 -4 -65 -6 -15 -10 -31 -10 -36 1 -4 -6 -32 -16 -62 -16 -47 -21 -53 -32 -40 -7 8 -9 15 -5 15 4 0 1 10 -7 23 -28 43 -29 82 -2 118 13 18 24 38 24 45 0 6 7 14 15 18 8 3 15 17 15 31 0 36 -40 33 -81 -5 -25 -22 -36 -27 -46 -18 -17 13 -43 -6 -43 -33 0 -32 -16 -28 -34 9 -10 20 -22 44 -26 52 -4 8 -20 18 -36 21 -47 9 -74 21 -74 30 0 10 -33 12 -42 3 -12 -11 5 -44 23 -44 15 0 19 -7 19 -40 0 -29 4 -40 15 -40 9 0 18 -7 21 -15 4 -8 13 -15 20 -15 8 0 18 -8 21 -17 4 -10 15 -24 26 -32 11 -8 15 -17 10 -22 -19 -19 0 -68 43 -113 24 -26 44 -51 44 -56 0 -6 4 -10 9 -10 5 0 13 -14 16 -32 4 -17 14 -38 22 -47 9 -9 13 -25 9 -42 -3 -16 -1 -31 4 -34 19 -12 10 -26 -11 -20 -15 5 -19 4 -14 -5 5 -8 0 -7 -14 2 -12 7 -21 20 -21 29 0 9 -9 19 -20 22 -12 3 -20 14 -20 27 0 17 -5 21 -19 17 -12 -3 -22 1 -25 9 -3 8 -11 13 -17 12 -6 -2 -12 7 -14 19 -1 13 -11 31 -23 42 -14 11 -20 25 -16 35 3 9 2 16 -3 16 -5 0 -17 16 -26 36 -10 19 -21 33 -26 30 -5 -3 -11 3 -14 14 -10 37 -47 23 -65 -25 l-12 -30 3 33 c2 17 2 32 0 32 -2 0 -21 -18 -43 -39 -48 -46 -94 -61 -118 -38 -13 14 -13 23 8 86 12 39 26 71 31 71 15 0 10 22 -8 35 -16 12 -16 14 0 30 21 20 14 35 -16 35 -15 0 -28 -11 -41 -35 -11 -19 -23 -35 -27 -35 -4 0 -13 -16 -19 -35 -10 -30 -14 -34 -27 -23 -13 11 -12 14 7 30 18 14 20 21 11 32 -9 11 -8 18 6 31 9 10 18 27 18 38 1 12 12 27 23 35 12 8 22 25 22 37 0 13 6 25 14 28 17 7 30 57 18 69 -14 14 -82 -12 -82 -32 0 -8 -9 -26 -20 -40 -11 -14 -20 -30 -20 -37 0 -7 -7 -16 -16 -21 -9 -5 -15 -12 -15 -15 4 -29 -2 -45 -18 -50 -23 -6 -34 -63 -14 -82 11 -12 10 -16 -9 -29 -23 -17 -39 -13 -21 5 13 13 -6 59 -24 59 -12 0 -24 54 -25 118 0 29 -5 42 -14 42 -9 0 -14 11 -14 31 0 27 -3 30 -27 27 -18 -2 -27 -8 -25 -17 2 -8 4 -33 4 -55 1 -27 8 -46 20 -56 16 -13 18 -32 20 -148 1 -110 -2 -135 -15 -150 -10 -10 -17 -22 -17 -26 0 -4 -9 -19 -20 -33 -14 -18 -20 -21 -20 -10 0 8 -16 29 -35 46 -19 17 -35 35 -35 40 0 5 -7 22 -15 37 -8 16 -15 50 -15 77 0 26 -4 47 -8 47 -13 0 -32 47 -32 79 0 36 -31 47 -55 21 -15 -16 -15 -21 -1 -55 18 -43 21 -81 6 -90 -5 -3 -10 -14 -10 -24 0 -10 -9 -21 -20 -24 -31 -8 -43 25 -34 92 4 31 6 61 5 66 -2 6 -4 15 -5 20 -1 6 -8 20 -15 33 -7 13 -11 38 -10 55 2 18 -5 49 -15 71 -17 37 -18 38 -37 20 -19 -17 -26 -54 -10 -54 10 0 20 -77 13 -97 -2 -7 -8 -11 -12 -8 -14 9 -22 -15 -22 -64 0 -52 23 -91 54 -91 15 0 18 -9 18 -65 0 -36 -4 -65 -9 -65 -5 0 -16 -3 -24 -6 -17 -6 -67 42 -67 64 0 8 -9 25 -20 39 -11 14 -20 32 -20 39 0 8 -7 14 -15 14 -8 0 -15 -9 -15 -19 0 -23 -18 -37 -30 -25 -4 5 -11 19 -15 32 -5 16 -2 22 9 22 9 0 23 12 33 28 10 15 20 29 24 32 18 15 29 54 24 90 -4 31 -1 40 10 40 17 0 21 45 5 55 -8 5 -8 11 0 20 8 9 7 17 -5 29 -13 13 -20 13 -35 3 -11 -6 -21 -16 -22 -22 0 -5 -2 -14 -3 -20 -2 -5 -3 -22 -4 -37 0 -16 -10 -37 -20 -47 -21 -21 -23 -52 -3 -64 11 -7 9 -13 -7 -28 -11 -10 -24 -19 -28 -19 -10 0 -53 51 -53 63 0 5 -7 7 -15 3 -11 -4 -15 2 -15 23 0 16 -7 34 -15 41 -8 7 -15 28 -15 46 0 28 -4 34 -20 34 -29 0 -35 -25 -16 -73 12 -31 13 -44 5 -52 -9 -7 -10 -6 -5 3 10 17 -2 15 -20 -3 -9 -8 -26 -15 -39 -15 -16 0 -24 -7 -27 -24 -6 -28 7 -56 26 -56 8 0 19 -7 26 -15 7 -9 19 -14 27 -11 7 3 13 2 13 -3 0 -5 13 -14 29 -21 36 -15 75 -55 67 -69 -4 -5 9 -32 29 -59 19 -27 35 -55 35 -62 0 -7 7 -10 14 -7 17 7 56 -49 56 -80 0 -12 7 -26 15 -33 8 -7 15 -18 15 -24 0 -17 32 -33 58 -29 19 2 22 0 17 -16 -4 -13 1 -24 16 -35 13 -9 20 -19 16 -22 -10 -11 13 -34 34 -34 11 0 19 -4 19 -10 0 -5 7 -10 15 -10 9 0 12 -6 8 -16 -4 -10 1 -17 15 -21 25 -6 38 -55 29 -108 -4 -24 0 -38 14 -54 23 -24 25 -83 4 -105 -19 -18 -19 -21 0 -39 11 -12 13 -27 8 -62 -4 -31 -9 -42 -14 -33 -6 8 -9 1 -10 -22 0 -19 -2 -56 -4 -82 -2 -33 2 -48 11 -52 8 -3 14 -15 14 -26 0 -12 -4 -19 -9 -16 -10 6 -24 -22 -17 -33 12 -19 14 -66 3 -80 -10 -12 -9 -14 6 -8 9 3 17 5 17 3 0 -8 -72 -76 -80 -76 -13 0 -21 -49 -12 -68 5 -9 8 -22 5 -28 -2 -6 3 -17 12 -24 20 -17 19 -33 -5 -48 -25 -16 -26 -42 -1 -49 11 -3 21 -13 24 -24 3 -13 11 -17 21 -13 13 5 16 -2 16 -36 0 -33 3 -41 15 -36 9 3 15 0 15 -9 0 -8 -4 -15 -8 -15 -5 0 -6 -14 -4 -31 3 -22 0 -34 -11 -40 -14 -9 -21 -35 -32 -121 -2 -21 -7 -54 -11 -73 -4 -25 -3 -35 6 -35 10 0 10 -3 0 -15 -6 -8 -8 -20 -4 -27 5 -7 9 -44 11 -83 8 -218 18 -307 37 -320 14 -11 17 -22 12 -54 -4 -33 -2 -41 10 -41 11 0 13 -6 9 -21 -5 -16 -3 -20 12 -17 12 2 17 -2 15 -13 -1 -10 6 -19 18 -22 11 -3 19 -11 18 -19 -2 -8 9 -14 31 -16 22 -2 35 -10 38 -22 3 -11 18 -21 39 -25 19 -3 34 -11 34 -18 0 -8 3 -8 9 1 10 17 29 -27 33 -78 2 -19 9 -41 16 -48 17 -19 15 -61 -3 -69 -14 -5 -13 -7 3 -19 15 -10 20 -26 21 -64 1 -67 33 -140 60 -140 14 0 21 6 21 19 0 36 22 35 57 -3 19 -21 38 -35 41 -31 4 4 -1 12 -11 19 -9 7 -17 19 -17 26 0 8 13 2 30 -15 16 -15 27 -32 24 -37 -5 -7 36 -28 55 -28 15 0 6 75 -11 94 -10 11 -18 26 -18 33 0 7 -4 13 -9 13 -5 0 -12 11 -15 25 -4 14 -11 25 -16 25 -6 0 -10 7 -10 15 0 9 -7 27 -16 40 -13 20 -13 25 -3 25 30 0 58 -13 52 -22 -4 -7 14 -9 52 -6 66 6 89 25 82 71 -2 15 0 30 4 33 11 7 39 -25 39 -45 0 -10 7 -24 15 -31 13 -11 13 -15 3 -21 -8 -5 10 -9 44 -9 31 0 60 -5 63 -10 3 -6 -2 -10 -12 -10 -10 0 -27 -11 -37 -25 -10 -14 -25 -25 -32 -25 -8 0 -14 -6 -14 -12 0 -7 -21 -26 -48 -43 -26 -16 -49 -32 -52 -35 -3 -4 -13 -9 -22 -13 -23 -8 -24 -72 -3 -94 13 -13 21 -13 45 -3 17 7 30 16 30 21 0 5 9 9 21 9 11 0 59 34 107 75 63 55 91 73 107 69 41 -10 60 18 61 93 1 37 5 83 9 102 6 24 5 32 -4 27 -6 -4 -14 0 -17 8 -3 9 -14 16 -23 16 -14 1 -14 2 2 11 13 7 17 23 17 62 0 73 12 187 19 187 3 0 14 -15 24 -32 l19 -32 18 24 c36 47 66 209 41 224 -15 10 -14 61 2 75 20 16 21 95 2 111 -24 20 -41 -3 -54 -71 -9 -46 -16 -59 -27 -55 -11 4 -14 -4 -14 -35 0 -43 -14 -79 -31 -79 -15 0 -3 96 22 173 11 38 31 74 49 91 38 37 49 75 27 91 -12 9 -16 26 -15 67 2 69 -7 86 -33 62 -14 -13 -19 -31 -19 -69 0 -52 -20 -98 -34 -77 -4 6 -1 20 6 31 10 16 10 27 1 53 -7 18 -12 52 -11 76 0 34 4 42 19 42 11 0 19 7 19 18 1 14 3 14 19 -5 25 -30 33 -29 25 3 -5 19 -4 25 5 20 6 -4 9 -11 7 -15 -3 -4 8 -18 24 -30 17 -12 30 -27 30 -34 0 -7 6 -24 14 -38 8 -16 10 -32 5 -40 -12 -20 -11 -102 1 -94 12 7 14 -25 10 -167 -2 -98 -1 -107 18 -117 29 -16 38 -14 49 11 7 16 9 -4 9 -74 -1 -97 -9 -125 -26 -98 -7 11 -10 4 -10 -23 0 -23 4 -36 10 -32 6 3 10 -1 10 -10 0 -9 -4 -14 -9 -11 -5 3 -9 -9 -8 -27 0 -18 -9 -53 -21 -78 -12 -25 -22 -48 -22 -52 0 -21 -46 -107 -57 -107 -11 0 -13 -14 -12 -55 2 -42 -2 -62 -18 -83 -11 -15 -23 -37 -27 -49 -9 -27 -65 -69 -86 -65 -12 2 -12 1 -2 -6 11 -7 5 -14 -21 -31 -19 -11 -39 -21 -46 -21 -6 0 -11 -4 -11 -9 0 -7 -37 -20 -75 -25 -25 -3 -55 -18 -55 -27 0 -5 -3 -8 -7 -8 -5 1 -11 0 -15 -1 -5 -1 -14 -3 -20 -4 -7 0 -14 -9 -16 -20 -3 -11 0 -16 7 -12 6 4 11 2 11 -5 0 -8 -13 -10 -40 -6 -32 4 -42 2 -50 -13 -19 -35 3 -57 50 -51 8 1 30 3 49 5 19 2 37 9 40 14 8 13 37 21 106 28 66 6 79 13 147 76 42 39 98 132 98 166 0 6 4 12 8 12 13 0 83 154 88 196 3 21 6 48 8 59 5 41 20 80 37 99 14 15 16 23 8 39 -8 15 -7 28 8 56 10 20 23 39 28 43 6 5 5 11 -3 16 -17 11 -4 70 17 75 14 4 14 5 -1 6 -20 1 -26 45 -8 56 6 3 10 20 10 37 0 16 7 45 16 64 13 28 14 37 4 49 -11 13 -10 18 5 29 14 10 15 17 7 32 -7 14 -8 34 -1 63 7 31 6 47 -2 57 -7 8 -9 30 -6 52 2 21 0 46 -5 55 -5 10 -10 61 -12 114 -2 76 0 100 11 108 12 9 13 23 3 90 -6 44 -12 92 -13 107 -2 20 -5 24 -14 16 -7 -6 -14 -7 -14 -2 -6 39 -5 54 3 54 6 0 7 25 3 63 -4 34 -9 100 -10 147 -2 47 -6 166 -10 265 -7 169 -7 183 12 225 17 37 28 83 32 141 1 3 12 19 26 35 14 16 25 32 25 37 0 4 9 7 20 7 11 0 20 6 20 14 0 8 9 17 20 21 11 3 33 20 50 36 16 17 30 28 30 25 0 -4 14 0 30 9 17 9 30 20 30 25 0 6 7 10 15 10 8 0 15 5 15 10 0 6 7 10 15 10 8 0 15 3 15 8 0 4 14 7 31 8 19 1 36 9 45 23 9 12 26 21 42 21 17 0 38 11 55 30 16 17 37 30 47 30 22 0 42 23 35 41 -3 8 -19 22 -35 31 -28 16 -29 20 -26 69 2 28 9 54 14 58 32 20 19 121 -18 141 -30 16 -50 12 -50 -10 0 -30 -30 -98 -46 -104 -11 -4 -13 0 -9 17 7 25 -23 71 -31 50 -3 -8 -22 5 -50 32 -24 25 -48 45 -53 45 -4 0 -14 -12 -21 -27 -7 -16 -15 -23 -17 -15 -3 6 -9 12 -14 12 -6 0 -7 -4 -4 -10 3 -5 -3 -10 -14 -10 -14 0 -21 -6 -21 -18 0 -10 -9 -28 -21 -41 -16 -16 -20 -30 -15 -51 3 -16 1 -32 -4 -35 -17 -11 -11 -37 10 -42 24 -6 26 -19 3 -31 -22 -13 -50 21 -61 74 -10 47 -37 67 -57 41 -7 -11 -11 -25 -9 -31 3 -7 -3 -19 -12 -27 -16 -13 -17 -11 -11 19 6 29 4 32 -18 32 -25 0 -30 -13 -26 -61 1 -8 -6 -33 -15 -54 -15 -36 -17 -37 -27 -20 -18 31 -18 285 -1 292 8 3 14 10 14 17 1 6 9 29 20 51 15 30 19 62 20 133 0 84 -2 92 -19 92 -11 0 -22 -8 -25 -17z m384 -353 c0 -20 -5 -30 -15 -30 -8 0 -15 -5 -15 -12 0 -6 -3 -9 -6 -5 -8 7 18 77 28 77 4 0 8 -13 8 -30z m171 -83 c-8 -8 -11 -5 -11 9 0 27 14 41 18 19 2 -9 -1 -22 -7 -28z m-1351 14 c0 -5 -13 -23 -30 -39 -18 -18 -30 -25 -30 -17 0 8 6 18 13 22 8 4 16 16 20 26 7 18 27 24 27 8z m580 -11 c0 -11 -4 -20 -10 -20 -5 0 -10 9 -10 20 0 11 5 20 10 20 6 0 10 -9 10 -20z m531 -53 c-8 -8 -11 -7 -11 4 0 20 13 34 18 19 3 -7 -1 -17 -7 -23z m-41 -66 c-5 -11 -7 -27 -3 -37 4 -12 3 -15 -5 -10 -15 9 -15 39 0 54 17 17 20 15 8 -7z m-764 -27 c16 -20 28 -40 27 -45 -2 -5 1 -9 7 -9 5 0 12 -16 16 -35 3 -20 12 -35 20 -35 27 0 54 -38 53 -77 0 -32 2 -57 10 -107 0 -4 8 -5 17 -2 12 5 15 2 10 -10 -3 -9 -3 -21 1 -27 4 -7 8 -16 8 -22 0 -5 15 -11 33 -13 17 -2 32 -7 32 -13 0 -5 -4 -9 -10 -9 -24 0 -7 -20 18 -21 20 0 23 -2 9 -7 -16 -7 -16 -8 0 -24 32 -30 43 -47 43 -66 0 -10 -6 -30 -12 -45 l-13 -27 -92 7 c-98 6 -123 -1 -123 -38 0 -9 -8 -25 -17 -35 -9 -9 -18 -25 -20 -36 -2 -10 -11 -31 -20 -46 -18 -26 -18 -26 -21 -4 -2 12 -8 22 -14 22 -7 0 -8 14 -5 36 7 40 0 64 -17 64 -6 0 -17 9 -24 20 -7 12 -23 20 -40 20 -15 0 -45 9 -66 20 -31 15 -52 18 -105 14 -59 -4 -69 -8 -97 -38 -47 -52 -56 -37 -49 80 5 71 10 101 21 107 8 4 14 17 14 28 0 13 -4 18 -12 13 -7 -4 -5 2 5 13 9 11 17 28 17 39 0 10 7 28 15 38 8 11 15 28 15 38 0 10 5 18 10 18 6 0 13 7 17 16 3 9 17 27 29 40 13 12 24 29 24 37 0 16 48 60 59 53 4 -3 29 6 56 19 27 14 55 25 62 25 7 0 17 8 20 18 20 52 51 54 89 6z m634 -4 c0 -41 -26 -107 -38 -96 -3 4 0 12 6 18 20 20 13 32 -8 13 -11 -10 -20 -24 -20 -32 0 -7 -6 -13 -14 -13 -12 0 -12 6 0 38 7 20 13 50 14 65 0 16 4 26 10 22 6 -3 10 1 10 9 0 9 9 16 20 16 17 0 20 -7 20 -40z m341 16 c10 -21 15 -22 45 -16 19 5 34 4 34 -1 0 -5 -13 -10 -30 -10 -39 -2 -41 -2 -67 -17 -21 -11 -23 -10 -23 8 0 11 -6 20 -12 21 -10 0 -10 2 0 6 6 2 12 11 12 19 0 23 30 16 41 -10z m-1302 -59 c-28 -26 -63 -28 -67 -4 -2 9 11 31 28 49 l32 32 15 -28 c14 -26 13 -29 -8 -49z m-522 39 c-3 -7 4 -29 16 -47 l21 -34 6 36 c4 31 8 35 25 29 17 -7 17 -9 5 -14 -22 -9 -19 -45 8 -88 20 -32 29 -38 58 -38 38 0 54 24 54 81 0 36 12 37 34 3 13 -19 24 -24 44 -22 21 2 28 -2 30 -19 2 -15 15 -26 40 -34 20 -7 42 -17 48 -24 14 -14 7 -64 -12 -82 -7 -8 -12 -30 -11 -51 2 -32 -1 -37 -18 -36 -22 2 -51 11 -78 25 -24 13 -89 -29 -83 -53 2 -10 1 -18 -4 -18 -12 0 -20 29 -10 35 15 9 -14 70 -55 118 -40 47 -70 66 -101 67 -13 0 -30 15 -47 41 -32 49 -35 85 -7 94 11 3 20 15 20 26 0 10 5 19 11 19 6 0 9 -6 6 -14z m1365 -26 c-2 -16 -8 -30 -13 -30 -12 0 -11 17 1 41 15 26 17 24 12 -11z m-932 -55 c0 -8 -7 -15 -15 -15 -16 0 -20 12 -8 23 11 12 23 8 23 -8z m840 -44 c0 -17 -18 -21 -24 -6 -3 9 0 15 9 15 8 0 15 -4 15 -9z m131 -66 c1 -5 1 -14 0 -18 -1 -5 12 -14 29 -20 37 -14 37 -22 5 -43 -14 -9 -23 -20 -20 -24 2 -4 -11 -25 -30 -46 -24 -27 -35 -34 -35 -22 0 25 -18 32 -43 15 -31 -20 -149 -22 -185 -3 -25 13 -29 21 -29 56 0 35 3 40 22 40 42 0 85 -12 85 -25 0 -6 9 -20 20 -30 26 -24 41 -10 43 39 1 20 7 36 13 36 6 0 25 13 44 30 32 29 79 38 81 15z m132 -20 c-12 -9 -19 -10 -22 -3 -4 12 20 29 32 21 4 -3 0 -11 -10 -18z m-1244 -205 c17 5 31 6 32 2 1 -4 1 -26 1 -50 -1 -29 4 -45 14 -49 12 -4 12 -8 2 -21 -14 -16 -18 -99 -17 -354 0 -86 -4 -159 -9 -162 -5 -3 -8 -18 -6 -33 2 -16 1 -20 -2 -10 -3 9 -10 17 -16 17 -5 0 -8 -7 -4 -15 7 -20 2 -19 -42 9 -21 13 -47 25 -58 27 -15 3 -20 14 -22 52 -2 34 1 49 11 53 17 6 22 100 6 109 -5 4 1 15 13 24 20 17 21 22 11 55 -6 20 -10 49 -8 64 2 15 -1 51 -7 81 -6 37 -6 57 1 64 14 14 14 47 1 47 -14 0 -12 25 4 65 14 32 17 34 40 25 15 -5 37 -5 55 0z m948 -35 c6 0 15 3 19 7 4 4 14 3 21 -4 11 -9 16 -9 22 1 6 9 10 7 13 -7 3 -11 1 -25 -4 -30 -6 -6 -10 -31 -10 -56 1 -29 -4 -51 -15 -62 -13 -12 -14 -17 -3 -24 8 -5 10 -17 6 -34 -4 -15 -3 -32 1 -39 4 -7 8 -93 8 -191 0 -138 3 -180 13 -184 10 -3 10 -7 1 -19 -10 -11 -9 -20 3 -41 10 -17 17 -54 18 -97 1 -39 7 -95 12 -124 9 -50 8 -57 -9 -71 -12 -9 -24 -37 -29 -65 -6 -33 -14 -50 -24 -50 -8 0 -18 -13 -21 -30 l-7 -30 -1 35 c-2 43 -24 109 -59 173 l-26 48 19 55 c10 29 24 54 32 54 7 0 13 6 13 14 0 17 27 28 51 21 15 -5 19 -1 19 18 0 27 -38 52 -76 49 -28 -2 -27 -7 -24 138 1 58 6 108 11 111 6 3 6 17 -1 34 -6 16 -11 97 -11 184 0 86 0 164 0 174 0 9 -4 17 -10 17 -5 0 -9 5 -9 11 0 5 5 7 10 4 6 -3 13 1 16 10 4 9 10 13 13 8 3 -5 11 -9 18 -8z m-524 -212 c15 -3 27 -10 27 -15 0 -5 -4 -6 -10 -3 -5 3 -10 -3 -10 -14 0 -25 20 -38 21 -14 1 13 3 11 9 -7 4 -14 9 -86 9 -160 1 -74 5 -142 11 -150 5 -9 5 -19 -1 -27 -6 -7 -8 -17 -4 -23 4 -6 10 -23 15 -39 7 -26 6 -27 -16 -23 -14 2 -24 0 -24 -7 0 -6 -11 -11 -23 -11 -14 0 -28 -8 -33 -20 -9 -20 -10 -19 -43 10 -18 17 -36 29 -38 26 -3 -3 -14 -1 -24 5 -19 10 -27 4 -62 -45 -15 -21 -42 -13 -33 10 3 8 1 14 -4 14 -6 0 -10 7 -10 15 0 9 -9 15 -25 15 -36 0 -48 37 -46 143 1 54 -2 87 -9 87 -5 0 -10 7 -10 16 0 9 5 12 12 8 8 -5 9 -2 5 9 -3 9 -2 19 3 22 6 4 10 21 10 40 0 19 4 37 10 40 5 3 14 24 20 46 10 37 34 47 28 11 -2 -10 3 -16 10 -14 7 1 23 -4 35 -13 30 -21 42 -19 77 15 33 33 37 48 15 56 -8 4 -15 9 -15 13 0 7 36 2 123 -16z m421 -10 c13 5 16 1 13 -16 -1 -12 -9 -33 -16 -46 -12 -21 -11 -26 3 -36 22 -16 23 -105 1 -105 -17 0 -21 -45 -5 -55 8 -5 7 -12 -1 -22 -10 -12 -10 -16 2 -24 10 -6 11 -9 1 -9 -9 0 -12 -15 -11 -52 1 -29 -1 -63 -5 -75 -4 -12 -2 -32 4 -43 18 -34 4 -35 -24 -4 -20 23 -25 25 -26 12 0 -21 -11 -23 -28 -6 -6 6 -32 11 -58 11 -36 0 -51 -5 -64 -21 -15 -19 -21 -20 -44 -9 -14 7 -24 18 -21 25 2 7 7 56 10 110 8 131 14 162 29 162 11 0 23 26 41 95 3 12 23 28 46 38 23 10 48 25 56 32 8 8 23 15 33 15 10 0 22 10 25 21 5 16 9 18 15 9 4 -7 15 -10 24 -7z m-878 -464 c3 -5 -5 -9 -18 -10 -21 -1 -20 -1 5 -11 21 -8 35 -7 53 3 13 7 26 10 29 7 3 -2 1 -27 -4 -54 -6 -29 -6 -55 0 -66 11 -21 14 -104 4 -140 -10 -38 0 -64 19 -49 12 10 15 6 21 -18 4 -17 4 -40 0 -51 -3 -11 -1 -45 5 -76 9 -41 9 -59 1 -67 -12 -12 -16 -239 -4 -251 5 -4 8 -26 8 -49 0 -40 2 -42 33 -45 28 -3 32 0 32 21 0 13 12 37 28 52 15 16 21 25 15 21 -7 -4 -13 -3 -13 3 0 5 7 14 16 19 20 11 37 75 35 134 -2 53 13 71 25 30 4 -15 7 -30 6 -34 -1 -5 5 -8 13 -8 8 0 15 4 15 9 0 6 15 11 32 13 24 2 36 10 46 30 11 23 15 25 37 15 14 -7 25 -18 25 -24 0 -7 6 -13 13 -13 17 0 51 -41 40 -49 -15 -10 -13 -49 3 -55 9 -3 13 -10 9 -16 -9 -15 13 -50 32 -50 20 0 53 29 53 46 0 52 60 154 91 154 5 0 9 6 9 14 0 7 7 19 15 26 16 13 15 15 33 -90 5 -30 10 -59 12 -65 7 -29 -2 -74 -20 -93 -20 -21 -23 -62 -7 -78 14 -14 7 -74 -8 -80 -12 -5 -13 -10 -4 -20 6 -8 9 -24 6 -36 -4 -13 0 -27 11 -37 22 -21 29 -91 9 -91 -16 0 -30 -37 -17 -45 5 -3 13 2 18 12 8 14 11 8 16 -27 8 -58 3 -126 -9 -120 -6 3 -9 7 -8 10 3 11 5 36 4 52 -1 11 -7 15 -23 11 -15 -3 -19 -2 -11 4 9 7 8 16 -7 41 -19 31 -50 44 -50 21 0 -8 -5 -8 -15 1 -8 7 -12 16 -9 21 3 5 -27 9 -66 9 -67 0 -74 -2 -115 -35 -34 -28 -44 -32 -49 -20 -4 11 -20 15 -61 15 -30 0 -55 -4 -55 -10 0 -5 5 -10 12 -10 20 0 0 -13 -24 -15 -36 -4 -36 -4 -42 -22 -5 -14 -19 -18 -68 -20 -35 -2 -67 2 -75 9 -10 8 -17 8 -24 1 -8 -8 -17 -6 -32 5 -52 43 -85 80 -101 115 -19 42 -40 152 -33 179 3 9 0 19 -6 21 -22 7 -11 463 12 491 13 15 15 15 27 -1 7 -10 14 -28 14 -40 0 -13 5 -23 11 -23 6 0 8 -7 5 -16 -3 -8 -2 -12 4 -9 6 3 10 1 10 -4 0 -17 30 -13 37 5 3 9 1 26 -6 36 -7 12 -8 17 -2 13 6 -3 11 -1 11 4 0 6 -6 11 -14 11 -18 0 -29 31 -19 55 5 14 3 17 -9 13 -12 -5 -25 13 -53 73 -21 44 -35 83 -31 86 6 6 36 -57 36 -76 0 -5 5 -13 11 -16 7 -5 8 5 4 29 -7 34 7 53 18 24 5 -16 12 -10 21 19 9 28 -27 66 -73 79 -44 12 -60 37 -43 64 6 11 12 31 12 44 0 14 5 28 10 31 6 3 10 13 10 21 0 8 -4 12 -10 9 -5 -3 -10 -1 -10 4 0 6 7 11 15 11 8 0 15 -4 15 -10 0 -5 5 -10 11 -10 5 0 8 4 5 9 -4 5 0 11 6 14 17 5 47 -3 54 -14z m934 -54 c0 -8 -4 -15 -10 -15 -5 0 -10 7 -10 15 0 8 5 15 10 15 6 0 10 -7 10 -15z m-555 -21 c14 -6 14 -9 0 -30 -9 -14 -18 -45 -20 -71 -3 -26 -12 -54 -20 -63 -8 -9 -15 -22 -15 -28 0 -20 39 -13 50 8 10 19 41 23 56 7 11 -11 26 -8 19 3 -3 6 1 10 9 10 8 0 18 -5 22 -11 4 -6 20 -8 39 -5 25 5 36 3 43 -10 5 -9 18 -14 28 -12 14 2 20 13 22 45 3 36 -1 44 -22 59 -33 21 -34 44 -2 44 15 0 33 -11 45 -26 13 -17 26 -24 37 -20 12 5 15 2 10 -10 -4 -11 0 -18 14 -21 10 -3 22 -13 25 -24 4 -12 12 -16 22 -12 12 5 14 3 8 -7 -6 -9 -4 -11 4 -6 17 11 83 -3 75 -15 -3 -6 3 -13 14 -16 33 -8 73 -140 45 -150 -7 -3 -9 3 -6 16 3 12 1 21 -6 21 -6 0 -11 19 -11 45 0 25 -4 45 -10 45 -5 0 -10 -7 -10 -15 0 -8 -6 -15 -14 -15 -8 0 -17 -16 -22 -37 -7 -38 -7 -38 -13 -9 -6 27 -7 26 -19 -20 -21 -76 -31 -96 -46 -91 -19 7 -111 -14 -97 -22 8 -5 -1 -23 -25 -54 -40 -51 -44 -53 -62 -35 -8 8 -9 15 -1 25 9 10 8 13 -5 13 -8 0 -29 15 -46 34 -19 21 -45 37 -66 40 -19 4 -34 11 -34 16 0 5 -7 7 -15 4 -9 -4 -15 0 -15 7 0 11 -2 11 -9 0 -8 -12 -12 -12 -25 -2 -11 9 -16 10 -16 2 0 -6 -6 -11 -14 -11 -8 0 -21 -6 -28 -13 -11 -11 -13 -4 -12 45 1 75 -15 136 -38 144 -10 3 -18 10 -18 15 0 20 -2 25 -17 42 -9 9 -13 17 -9 17 3 0 -1 11 -10 25 -9 14 -21 22 -27 18 -6 -4 -8 4 -3 21 4 18 3 25 -4 21 -5 -3 -10 0 -10 8 0 8 14 20 31 28 28 11 33 10 44 -4 15 -20 51 -22 58 -3 7 17 77 29 94 14 9 -7 13 -7 13 1 0 6 -10 16 -22 21 l-23 9 22 0 c12 1 29 -2 38 -5z m112 -13 c-1 -15 -4 -17 -14 -9 -17 14 -16 28 1 28 8 0 14 -9 13 -19z m238 9 c4 -6 11 -8 16 -5 5 4 9 1 9 -4 0 -15 -13 -14 -29 2 -11 10 -12 8 -6 -12 5 -16 4 -21 -4 -17 -13 9 -15 46 -2 46 6 0 13 -5 16 -10z m167 -35 c-12 -27 -18 -32 -24 -20 -6 9 -2 22 9 35 26 30 32 24 15 -15z m-356 -101 c-10 -26 -23 -14 -18 17 4 26 6 29 14 15 5 -10 7 -24 4 -32z m284 24 c0 -9 6 -19 13 -21 7 -3 4 -6 -6 -6 -21 -1 -77 26 -77 37 0 4 16 7 35 7 26 0 35 -4 35 -17z m-900 -212 c0 -8 -4 -18 -10 -21 -5 -3 -10 3 -10 14 0 12 5 21 10 21 6 0 10 -6 10 -14z m290 -72 c0 -8 -4 -14 -10 -14 -5 0 -10 9 -10 21 0 11 5 17 10 14 6 -3 10 -13 10 -21z m-22 -63 c11 -9 13 -15 5 -18 -8 -3 -7 -12 5 -33 15 -26 15 -31 -1 -65 -9 -19 -17 -50 -17 -68 0 -32 -18 -75 -21 -49 -10 85 -11 177 -3 204 3 9 0 19 -6 23 -5 3 -10 23 -10 43 l0 37 15 -30 c9 -16 24 -36 33 -44z m915 -71 c-6 -22 -23 -38 -23 -21 0 17 12 41 20 41 5 0 6 -9 3 -20z m11 -185 c-1 -44 -4 -89 -7 -100 -3 -11 -6 -28 -6 -38 -1 -15 -4 -15 -21 -5 -15 9 -18 20 -14 44 3 18 0 35 -6 39 -13 8 -13 58 1 89 9 19 9 29 0 40 -10 12 -8 19 13 37 14 13 27 30 27 38 4 43 14 -74 13 -144z m-252 -305 c-6 -16 -11 -20 -16 -11 -4 6 -2 19 5 27 16 20 21 12 11 -16z m-371 -159 c-14 -25 2 -36 46 -32 18 1 43 -5 55 -13 25 -18 12 -21 -27 -6 -50 19 -92 -60 -42 -80 l22 -9 -24 0 c-20 -1 -21 -3 -11 -16 10 -12 10 -15 -4 -15 -9 0 -16 -7 -16 -16 0 -13 -3 -14 -15 -4 -8 6 -29 12 -47 13 -33 2 -33 2 -32 51 0 29 6 53 15 60 19 15 59 73 59 85 0 12 24 21 28 10 2 -4 -2 -17 -7 -28z m-131 -20 c0 -25 -21 -64 -30 -55 -7 7 -6 20 2 37 13 26 28 36 28 18z m341 -55 c9 5 10 2 6 -9 -8 -20 14 -67 32 -67 9 0 12 -9 9 -31 -4 -22 0 -33 14 -40 19 -10 25 -49 7 -49 -6 0 -8 9 -4 21 6 18 4 20 -14 14 -20 -6 -27 6 -22 37 0 4 -19 13 -43 19 -32 8 -43 15 -39 25 12 32 -8 11 -22 -23 -21 -51 -25 -39 -10 37 7 39 14 57 17 45 4 -18 6 -17 18 7 10 21 16 25 26 17 7 -6 19 -7 25 -3z m-318 -166 c10 -10 9 -12 -6 -6 -10 3 -25 6 -33 6 -9 0 -13 4 -10 9 8 12 33 8 49 -9z m-127 -77 c-1 -1 -9 6 -17 16 -12 13 -13 23 -6 42 10 23 10 22 17 -16 5 -22 7 -41 6 -42z m415 62 c1 -16 -16 -16 -36 0 -19 15 -19 15 8 13 15 -2 28 -7 28 -13z m139 -131 c0 -2 -11 -4 -25 -4 -14 0 -25 4 -25 9 0 4 11 6 25 3 14 -2 25 -6 25 -8z"/>
 <path d="M3904 3627 c-3 -9 -3 -25 0 -34 6 -15 8 -15 24 0 15 16 15 18 0 34 -16 15 -18 15 -24 0z"/>
 <path d="M3916 3522 c-4 -13 -5 -26 -2 -29 10 -11 18 4 14 29 l-4 23 -8 -23z"/>
 <path d="M3540 2343 c-19 -5 -52 -61 -39 -68 5 -4 9 -1 9 6 0 10 3 10 13 0 10 -11 10 -14 0 -18 -18 -7 -16 -42 6 -88 l19 -40 -4 45 c-3 39 -3 42 7 20 35 -80 66 -137 88 -164 7 -8 11 -23 9 -33 -2 -12 2 -17 15 -15 9 2 17 -2 17 -7 0 -5 30 -41 68 -78 70 -71 137 -106 154 -80 12 19 9 65 -7 103 -14 34 -14 35 8 33 55 -5 67 0 67 29 0 15 4 22 8 16 4 -6 17 -16 30 -23 12 -7 20 -16 17 -22 -4 -5 -2 -9 4 -9 5 0 13 5 16 10 4 6 10 8 15 5 5 -3 19 4 30 15 23 23 36 21 101 -8 21 -10 44 -31 55 -52 27 -50 81 -77 130 -65 27 7 40 16 43 30 2 11 8 23 15 27 8 6 7 8 -1 8 -7 0 -13 7 -13 15 0 18 17 20 22 3 2 -6 10 -8 17 -4 7 5 10 14 7 22 -8 22 31 -2 44 -26 6 -12 21 -20 35 -20 24 0 34 -13 18 -23 -5 -2 -3 -2 4 -1 7 2 15 -1 18 -7 10 -15 82 -49 106 -49 15 0 19 4 15 16 -3 9 -6 18 -6 20 0 2 -8 4 -17 4 -9 0 -29 12 -44 26 -23 22 -26 31 -21 67 4 35 3 39 -11 34 -13 -5 -17 -1 -17 18 0 13 -5 27 -11 30 -13 8 -49 -23 -49 -42 0 -12 -4 -11 -22 1 -35 25 -76 20 -109 -13 -16 -16 -29 -26 -29 -22 0 3 -13 21 -29 39 -36 39 -82 44 -105 10 -14 -20 -17 -20 -33 -6 -17 15 -50 29 -82 34 -8 2 -24 -4 -37 -13 -30 -19 -55 -10 -94 33 -44 51 -66 43 -63 -24 l2 -53 -25 20 c-51 40 -102 129 -88 153 4 6 3 8 -4 4 -6 -3 -13 3 -17 14 -9 29 -42 26 -47 -4 -3 -14 -1 -31 3 -38 5 -7 9 -8 9 -3 0 6 7 -3 16 -20 8 -16 14 -43 12 -60 -2 -21 1 -30 12 -30 9 0 22 -20 32 -50 37 -106 13 -126 -52 -44 -37 47 -52 77 -31 65 5 -4 7 3 4 14 -6 24 -23 27 -23 4 0 -21 -19 3 -78 98 -49 78 -74 140 -76 185 -1 36 -13 51 -36 46z m784 -382 c19 -20 14 -41 -8 -41 -11 0 -36 39 -36 55 0 12 29 3 44 -14z"/>
 <path d="M1070 2328 c-19 -5 -40 -14 -45 -18 -13 -10 -45 -99 -48 -128 -1 -16 -5 -18 -22 -12 -11 4 -19 14 -17 20 2 8 -3 10 -13 6 -8 -3 -57 10 -108 28 -159 57 -278 89 -291 76 -12 -13 17 -40 42 -40 8 0 30 -10 49 -21 20 -13 54 -23 80 -24 30 -1 48 -7 55 -18 5 -10 19 -17 31 -17 12 0 65 -22 117 -48 l95 -47 7 -48 c6 -48 13 -62 26 -62 13 0 52 -40 52 -52 0 -7 7 -13 15 -13 7 0 18 -6 22 -12 17 -28 123 -78 163 -78 16 0 30 -4 30 -10 0 -5 11 -10 25 -10 35 0 59 47 42 84 -7 14 -18 26 -24 26 -7 0 -13 6 -13 13 0 7 -9 20 -20 30 -11 9 -20 23 -20 31 0 9 -7 12 -20 9 -14 -4 -20 0 -20 11 0 9 -5 16 -11 16 -6 0 -43 20 -83 44 -39 25 -84 50 -99 55 -24 9 -27 15 -21 34 4 12 7 30 6 39 0 11 5 15 14 11 9 -3 14 2 15 13 1 11 2 26 3 34 1 16 35 28 84 29 35 1 125 -39 139 -62 12 -21 39 -27 57 -14 12 9 14 19 7 42 -7 25 -12 30 -36 27 -17 -2 -41 6 -64 22 -68 47 -124 56 -201 34z m103 -388 c5 0 7 7 3 15 -4 13 -1 12 20 -1 15 -10 23 -23 19 -31 -8 -22 5 -36 21 -22 11 9 14 7 14 -10 0 -11 -4 -21 -8 -21 -4 0 -37 21 -72 47 -55 40 -61 47 -45 53 14 6 23 2 29 -11 5 -11 13 -19 19 -19z"/>
 <path d="M1602 2161 c4 -13 18 -16 19 -4 0 4 -5 9 -11 12 -7 2 -11 -2 -8 -8z"/>
 <path d="M1967 2163 c-2 -5 -10 -30 -16 -58 -7 -27 -15 -56 -17 -63 -3 -9 -22 1 -56 31 -70 59 -116 74 -158 52 -17 -9 -34 -23 -37 -31 -9 -24 -26 -16 -21 11 5 25 -7 36 -14 13 -3 -8 -13 -5 -32 10 -40 31 -90 38 -121 18 -14 -9 -25 -23 -25 -31 0 -9 -6 -12 -15 -9 -11 5 -15 -1 -15 -25 0 -21 5 -31 15 -31 14 0 16 -6 19 -50 1 -8 9 -16 19 -18 9 -2 17 -10 17 -17 0 -7 6 -15 12 -17 7 -3 13 -13 13 -24 0 -10 8 -20 19 -22 11 -2 27 -13 36 -24 15 -19 19 -19 58 -6 68 23 94 52 92 101 -4 71 -2 77 25 77 14 0 25 5 25 10 0 6 -8 10 -17 10 -9 0 -14 3 -10 6 12 12 77 -20 77 -38 0 -12 6 -18 18 -16 11 2 17 -4 17 -17 0 -13 7 -20 19 -20 23 0 32 -20 18 -38 -16 -19 12 -77 38 -77 31 0 95 -51 78 -61 -8 -6 3 -9 30 -9 35 0 42 3 42 20 0 11 -5 20 -10 20 -6 0 -24 10 -41 22 -24 18 -29 27 -24 49 5 20 0 33 -17 50 -17 16 -19 20 -5 16 11 -4 17 -1 17 9 0 8 -4 12 -10 9 -5 -3 -10 -2 -10 4 0 5 5 11 11 13 14 5 31 82 19 86 -6 2 -10 19 -10 38 0 29 -3 34 -24 34 -14 0 -27 -3 -29 -7z m-378 -92 c15 -12 25 -30 27 -54 3 -40 2 -42 -26 -27 -16 8 -18 7 -14 -4 3 -8 13 -17 22 -19 13 -3 11 -5 -4 -6 -27 -1 -54 38 -59 87 -3 20 -2 29 1 20 6 -19 34 -25 34 -8 0 6 -4 10 -10 10 -5 0 -10 5 -10 10 0 15 12 12 39 -9z m61 -107 c0 -24 -4 -44 -10 -44 -5 0 -10 23 -10 51 0 31 4 48 10 44 6 -3 10 -26 10 -51z"/>
 <path d="M3750 2108 c0 -8 6 -23 14 -33 13 -18 14 -18 9 8 -6 29 -23 48 -23 25z"/>
 <path d="M3607 2041 c3 -12 9 -21 14 -21 14 0 11 16 -5 29 -12 10 -13 8 -9 -8z"/>
 <path d="M4730 2009 c-8 -14 -8 -24 -1 -33 6 -7 11 -35 12 -62 2 -59 12 -74 49 -74 24 0 29 5 34 34 4 19 1 46 -6 62 -12 29 -15 38 -17 60 -1 9 -42 34 -56 34 -2 0 -9 -9 -15 -21z"/>
 <path d="M4783 1708 c-30 -39 -19 -65 35 -87 50 -21 60 -3 31 51 -25 45 -49 58 -66 36z"/>
 <path d="M2659 301 c-6 -21 -3 -48 6 -58 6 -7 16 -19 23 -28 14 -16 40 -19 60 -7 10 7 10 16 -1 48 -12 34 -19 40 -51 45 -20 3 -37 3 -37 0z"/>
 </g>

</svg>