<!DOCTYPE svg PUBLIC "-//W3C//DTD SVG 20010904//EN" "http://www.w3.org/TR/2001/REC-SVG-20010904/DTD/svg10.dtd">
<svg version="1.0" xmlns="http://www.w3.org/2000/svg" width="577px" height="433px" viewBox="0 0 5770 4330" preserveAspectRatio="xMidYMid meet">
<g id="layer101" fill="#242424" stroke="none">
 <path d="M3500 2455 c0 -19 4 -35 8 -35 5 0 23 -30 42 -67 51 -105 114 -196 166 -242 54 -47 81 -57 121 -44 22 7 29 17 31 41 2 20 9 32 18 32 9 0 25 5 37 12 12 6 36 11 52 9 17 -1 51 7 78 19 50 22 78 20 110 -8 11 -9 17 -11 17 -4 0 23 17 11 33 -23 21 -44 68 -69 113 -60 30 5 34 10 34 35 0 34 8 36 68 15 24 -9 48 -13 53 -9 6 3 20 -3 32 -13 51 -45 107 -67 107 -43 0 10 -18 28 -60 59 -20 15 -24 27 -25 67 0 43 -3 49 -22 52 -20 3 -23 -1 -23 -32 0 -19 -4 -37 -8 -40 -5 -3 -32 2 -60 11 -49 16 -52 16 -71 -2 -20 -17 -21 -17 -50 14 -36 38 -89 44 -98 11 -6 -21 -6 -21 -26 1 -18 19 -27 21 -81 15 -34 -3 -72 -8 -86 -11 -19 -4 -34 2 -59 25 -39 35 -51 31 -51 -16 0 -32 -1 -33 -21 -22 -11 7 -34 39 -50 71 -16 32 -37 61 -45 64 -21 8 -40 -12 -27 -29 14 -19 53 -160 50 -180 -5 -28 -17 -34 -17 -8 0 19 -2 21 -15 10 -13 -11 -23 -6 -62 36 -51 55 -119 166 -159 260 -30 72 -54 84 -54 29z m785 -295 c32 -33 27 -54 -6 -24 -25 22 -43 54 -31 54 4 0 21 -13 37 -30z"/>
 <path d="M680 2395 c0 -9 14 -17 40 -21 24 -4 37 -11 33 -17 -4 -6 0 -8 9 -5 14 6 86 -8 153 -30 32 -10 199 -86 251 -114 18 -10 46 -42 68 -81 44 -75 93 -125 153 -156 49 -24 72 -26 97 -8 42 31 -39 128 -171 205 -53 31 -72 48 -76 68 -8 42 3 65 35 71 19 4 27 10 24 19 -12 31 102 -2 140 -41 22 -21 44 -19 44 6 0 28 -116 82 -191 87 -52 4 -57 2 -82 -28 -18 -21 -27 -43 -27 -66 0 -19 -2 -34 -5 -34 -3 0 -34 14 -68 32 -34 17 -127 53 -206 80 -149 49 -221 61 -221 33z m698 -314 c23 -17 42 -38 42 -46 0 -8 7 -15 15 -15 8 0 15 -7 15 -16 0 -45 -115 42 -164 124 -11 18 34 -5 92 -47z"/>
 <path d="M2240 2315 c-18 -22 -16 -112 4 -169 15 -45 15 -51 2 -58 -25 -14 -18 -35 13 -41 15 -3 31 -14 34 -24 11 -33 92 -171 123 -210 37 -44 57 -37 30 10 -48 82 -107 199 -103 203 2 3 16 0 31 -6 38 -14 46 -13 46 8 0 19 -22 34 -75 50 -25 7 -32 16 -43 58 -15 58 -20 139 -10 150 13 12 90 -28 84 -43 -3 -8 -2 -12 3 -8 5 3 21 1 35 -5 38 -14 40 4 4 41 -56 55 -149 78 -178 44z"/>
 <path d="M1610 2226 c-22 -40 -22 -45 -8 -60 9 -9 19 -28 23 -43 3 -16 20 -37 38 -48 18 -11 32 -27 32 -35 0 -11 12 -14 50 -11 52 3 80 24 68 51 -3 8 -8 33 -11 54 -5 44 13 66 55 66 35 0 92 -33 93 -53 0 -10 4 -16 9 -13 17 11 61 -42 61 -73 0 -35 13 -47 29 -27 9 11 18 7 47 -20 19 -19 42 -34 50 -34 24 0 15 29 -18 59 -32 28 -32 31 -36 130 -4 96 -6 102 -25 99 -14 -2 -24 -14 -29 -35 -5 -18 -13 -33 -19 -33 -6 0 -9 -7 -5 -15 7 -20 5 -19 -52 15 -27 17 -70 37 -95 45 -42 13 -48 12 -71 -6 -14 -11 -28 -29 -31 -40 -7 -20 -9 -19 -44 15 -20 20 -42 36 -49 36 -7 0 -12 5 -12 10 0 25 -30 6 -50 -34z m120 -81 c0 -7 9 -20 20 -30 21 -19 27 -45 10 -45 -41 0 -90 56 -90 104 l0 27 30 -23 c17 -12 30 -27 30 -33z"/>
 <path d="M2498 2260 c-9 -6 -22 -26 -28 -44 -12 -36 1 -98 40 -196 10 -25 32 -79 48 -120 17 -44 35 -75 43 -75 18 0 14 33 -13 94 -54 124 -83 270 -57 286 12 8 101 -23 111 -39 4 -7 17 -1 36 17 31 30 55 33 114 15 29 -8 40 -18 44 -37 8 -39 36 -91 54 -101 9 -5 26 -6 38 -3 30 7 29 50 -3 97 l-25 37 25 11 c19 9 32 7 65 -9 22 -12 43 -17 46 -12 11 18 -8 49 -39 63 -61 28 -76 28 -112 6 -32 -20 -36 -20 -57 -6 -31 22 -104 20 -155 -5 l-42 -20 -34 25 c-35 27 -70 32 -99 16z"/>
 <path d="M3070 2241 c-12 -24 -13 -84 -1 -77 5 3 14 -7 20 -22 28 -66 82 -100 141 -88 17 3 30 4 30 3 0 -28 27 -131 41 -159 32 -63 78 -72 79 -16 0 21 -34 110 -60 159 -11 20 -20 46 -20 56 0 27 21 85 28 78 9 -9 52 37 52 56 0 10 -8 19 -17 21 -24 6 -93 -49 -93 -73 0 -27 -13 -24 -39 12 -47 63 -138 92 -161 50z m150 -140 c0 -6 -7 -11 -15 -11 -19 0 -65 47 -65 66 0 7 -3 21 -6 31 -4 10 14 -3 40 -29 25 -26 46 -51 46 -57z"/>
 <path d="M4683 2215 c-8 -24 6 -97 23 -116 19 -21 58 -13 49 10 -4 9 -11 40 -17 69 -8 41 -15 52 -30 52 -10 0 -21 -7 -25 -15z"/>
 <path d="M4727 1943 c-14 -13 -7 -73 7 -73 29 0 46 13 46 34 0 34 -34 59 -53 39z"/>
 </g>

</svg>